<svg width="32" height="31" viewBox="0 0 32 31" fill="none" xmlns="http://www.w3.org/2000/svg">
<path d="M27.5763 6.49616C26.1486 6.04597 24.5793 5.85303 23.0744 5.85303C20.5662 5.85303 17.8651 6.36753 16 7.78242C14.1349 6.36753 11.4338 5.85303 8.92558 5.85303C6.41737 5.85303 3.71623 6.36753 1.85115 7.78242V26.6261C1.85115 26.9477 2.17272 27.2692 2.49428 27.2692C2.62291 27.2692 2.68722 27.2049 2.81584 27.2049C4.55229 26.3689 7.0605 25.79 8.92558 25.79C11.4338 25.79 14.1349 26.3045 16 27.7194C17.7365 26.6261 20.8878 25.79 23.0744 25.79C25.1968 25.79 27.3834 26.1759 29.1842 27.1406C29.3128 27.2049 29.3771 27.2049 29.5057 27.2049C29.8273 27.2049 30.1489 26.8834 30.1489 26.5618V7.78242C29.3771 7.2036 28.541 6.81772 27.5763 6.49616ZM4.42367 23.8607V9.06868C5.83855 8.61848 7.38206 8.42555 8.92558 8.42555C10.6492 8.42555 12.9516 8.95291 14.7137 9.69894V24.4909C12.9516 23.7449 10.6492 23.2175 8.92558 23.2175C7.38206 23.2175 5.83855 23.4105 4.42367 23.8607ZM27.5763 23.8607C26.1614 23.4105 24.6179 23.2175 23.0744 23.2175C21.3508 23.2175 19.0484 23.7449 17.2863 24.4909V9.69894C19.0484 8.94005 21.3508 8.42555 23.0744 8.42555C24.6179 8.42555 26.1614 8.61848 27.5763 9.06868V23.8607Z" fill="#F64545"/>
<path opacity="0.3" d="M14.7137 9.69893C12.9516 8.9529 10.6492 8.42554 8.92558 8.42554C7.38206 8.42554 5.83855 8.61848 4.42367 9.06867V23.8606C5.83855 23.4105 7.38206 23.2175 8.92558 23.2175C10.6492 23.2175 12.9516 23.7449 14.7137 24.4909V9.69893Z" fill="#F64545"/>
<path d="M23.0744 13.5706C24.2063 13.5706 25.2997 13.6864 26.2901 13.9051V11.9499C25.2739 11.757 24.1806 11.6412 23.0744 11.6412C21.428 11.6412 19.9102 11.847 18.5725 12.2458V14.2652C19.8459 13.815 21.3766 13.5706 23.0744 13.5706Z" fill="#F64545"/>
<path d="M23.0744 16.9921C24.2063 16.9921 25.2997 17.1078 26.2901 17.3265V15.3714C25.2739 15.1784 24.1806 15.0627 23.0744 15.0627C21.428 15.0627 19.9102 15.2685 18.5725 15.6672V17.6867C19.8459 17.2493 21.3766 16.9921 23.0744 16.9921Z" fill="#F64545"/>
<path d="M23.0744 20.4263C24.2063 20.4263 25.2997 20.5421 26.2901 20.7608V18.8057C25.2739 18.6127 24.1806 18.4969 23.0744 18.4969C21.428 18.4969 19.9102 18.7028 18.5725 19.1015V21.1209C19.8459 20.6707 21.3766 20.4263 23.0744 20.4263Z" fill="#F64545"/>
</svg>
