<svg width="21" height="24" viewBox="0 0 21 24" fill="none" xmlns="http://www.w3.org/2000/svg">
<path d="M19.32 11.2533L11.6667 7.84666V6.16666C11.6667 5.525 11.1417 5 10.5 5C9.85833 5 9.33333 4.475 9.33333 3.83333C9.33333 3.19166 9.85833 2.66666 10.5 2.66666C11.1417 2.66666 11.6667 3.19166 11.6667 3.83333H14C14 1.68666 12.0633 -0.0166712 9.84667 0.391662C8.47 0.648329 7.33833 1.75666 7.07 3.13333C6.72 4.95333 7.77 6.56333 9.33333 7.12333V7.85833L1.68 11.265C0.653333 11.7083 0 12.7233 0 13.8317V13.8433C0 15.4067 1.26 16.6667 2.82333 16.6667H4.66667V23.6667H16.3333V16.6667H18.1767C19.74 16.6667 21 15.4067 21 13.8433V13.8317C21 12.7233 20.3467 11.7083 19.32 11.2533ZM18.1767 14.3333H16.3333V13.1667H4.66667V14.3333H2.82333C2.555 14.3333 2.33333 14.1117 2.33333 13.8317C2.33333 13.6333 2.45 13.4583 2.625 13.3883L10.5 9.88833L18.375 13.3883C18.55 13.47 18.6667 13.645 18.6667 13.8433C18.6667 14.1117 18.445 14.3333 18.1767 14.3333Z" fill="#F64345"/>
</svg>
