<svg width="26" height="27" viewBox="0 0 26 27" fill="none" xmlns="http://www.w3.org/2000/svg">
<g clip-path="url(#clip0_95_204)">
<mask id="mask0_95_204" style="mask-type:luminance" maskUnits="userSpaceOnUse" x="-22" y="-22" width="70" height="71">
<path d="M47.6326 -21.133H-21.633V48.1326H47.6326V-21.133Z" fill="white"/>
</mask>
<g mask="url(#mask0_95_204)">
<mask id="mask1_95_204" style="mask-type:luminance" maskUnits="userSpaceOnUse" x="-22" y="-22" width="70" height="71">
<path d="M47.6326 -21.1321H-21.633V48.1335H47.6326V-21.1321Z" fill="white"/>
</mask>
<g mask="url(#mask1_95_204)">
<path d="M10.9381 13.4996L18.0541 6.38407L18.072 6.36615L18.1168 6.32135H18.1139C18.4341 5.98461 18.6716 5.57812 18.8079 5.13392C18.9441 4.68971 18.9753 4.21994 18.8991 3.76161C18.8228 3.30328 18.6411 2.86893 18.3684 2.49279C18.0956 2.11665 17.7392 1.809 17.3273 1.59409C16.9153 1.37918 16.4591 1.26289 15.9945 1.25437C15.53 1.24585 15.0698 1.34534 14.6503 1.545C14.2307 1.74466 13.8633 2.03903 13.5769 2.40491C13.2905 2.7708 13.093 3.1982 13 3.65342C12.9087 3.20462 12.7159 2.78268 12.4363 2.41989C12.1568 2.05711 11.7979 1.76311 11.3872 1.5604C10.9765 1.3577 10.5249 1.25167 10.0669 1.25044C9.60892 1.2492 9.15672 1.35279 8.74494 1.55328C8.33316 1.75376 7.97272 2.04582 7.69122 2.40709C7.40972 2.76836 7.21463 3.18926 7.12089 3.63756C7.02714 4.08586 7.03724 4.54966 7.15039 4.99346C7.26354 5.43725 7.47676 5.84927 7.77371 6.19795L7.76352 6.20202L7.91706 6.35556C7.9305 6.36941 7.94394 6.38284 7.95779 6.39628L11.0497 9.48817" stroke="#F64545" stroke-width="2" stroke-linecap="round" stroke-linejoin="round"/>
<path d="M15.0616 13.5004L7.94558 20.6156L7.92807 20.6331L7.88286 20.6783H7.88571C7.56541 21.0151 7.32771 21.4216 7.19135 21.8659C7.05499 22.3102 7.02371 22.7801 7.09995 23.2386C7.1762 23.6971 7.3579 24.1315 7.63073 24.5078C7.90356 24.884 8.26006 25.1918 8.67212 25.4067C9.08418 25.6217 9.54054 25.738 10.0052 25.7465C10.4699 25.7549 10.9302 25.6554 11.3498 25.4556C11.7695 25.2558 12.1369 24.9613 12.4233 24.5952C12.7097 24.2292 12.9071 23.8016 13 23.3462C13.0913 23.7951 13.284 24.2172 13.5636 24.58C13.8431 24.9429 14.202 25.237 14.6127 25.4398C15.0234 25.6425 15.4751 25.7486 15.9332 25.7498C16.3912 25.7511 16.8435 25.6475 17.2553 25.447C17.6671 25.2464 18.0276 24.9543 18.3091 24.593C18.5906 24.2316 18.7857 23.8106 18.8794 23.3623C18.9731 22.9139 18.9629 22.45 18.8496 22.0062C18.7364 21.5624 18.523 21.1504 18.2259 20.8017L18.2361 20.7976L18.0826 20.6441C18.0691 20.6302 18.0557 20.6168 18.0418 20.6034L14.7101 17.2716" stroke="#F64545" stroke-width="2" stroke-linecap="round" stroke-linejoin="round"/>
<path d="M15.0616 13.5004L20.1164 18.5541L20.1343 18.572L20.1791 18.6168V18.6139C20.5159 18.9341 20.9224 19.1717 21.3666 19.308C21.8108 19.4442 22.2806 19.4755 22.739 19.3992C23.1974 19.3229 23.6317 19.1412 24.0079 18.8684C24.384 18.5956 24.6917 18.2392 24.9066 17.8272C25.1215 17.4152 25.2377 16.959 25.2462 16.4944C25.2547 16.0298 25.1552 15.5696 24.9554 15.15C24.7557 14.7305 24.4613 14.3631 24.0953 14.0767C23.7294 13.7904 23.3019 13.593 22.8466 13.5C23.2955 13.4088 23.7176 13.2161 24.0805 12.9367C24.4434 12.6572 24.7376 12.2984 24.9404 11.8877C25.1432 11.477 25.2494 11.0253 25.2507 10.5673C25.252 10.1092 25.1485 9.65692 24.948 9.24506C24.7476 8.8332 24.4555 8.47269 24.0942 8.19113C23.7329 7.90957 23.312 7.71444 22.8636 7.62068C22.4152 7.52692 21.9514 7.53702 21.5075 7.65022C21.0637 7.76341 20.6516 7.97669 20.3029 8.27371L20.2989 8.26353L20.1453 8.41706L20.1046 8.45779L16.8628 11.6995" stroke="#F64545" stroke-width="2" stroke-linecap="round" stroke-linejoin="round"/>
<path d="M12.9992 15.562L5.88445 8.44602L5.86653 8.4281L5.82173 8.3833V8.38615C5.48499 8.06601 5.07851 7.82845 4.6343 7.6922C4.1901 7.55595 3.72032 7.52473 3.26199 7.601C2.80366 7.67727 2.36931 7.85895 1.99317 8.13172C1.61703 8.40448 1.30939 8.76088 1.09448 9.17282C0.879566 9.58476 0.763268 10.041 0.754748 10.5055C0.746228 10.9701 0.845719 11.4303 1.04538 11.8498C1.24504 12.2694 1.53941 12.6368 1.9053 12.9232C2.27118 13.2095 2.69858 13.407 3.1538 13.5001C2.70496 13.5913 2.28295 13.7841 1.9201 14.0636C1.55725 14.3431 1.26318 14.7019 1.06042 15.1126C0.857649 15.5233 0.751564 15.975 0.750286 16.433C0.749008 16.891 0.852571 17.3432 1.05304 17.7551C1.25351 18.1669 1.54558 18.5274 1.90686 18.8089C2.26815 19.0904 2.68907 19.2855 3.1374 19.3793C3.58572 19.473 4.04956 19.4629 4.49338 19.3498C4.9372 19.2366 5.34924 19.0234 5.69793 18.7264L5.70241 18.7365L5.85594 18.583L5.89667 18.5423L9.22476 15.2138" stroke="#F64545" stroke-width="2" stroke-linecap="round" stroke-linejoin="round"/>
<path d="M15.062 13.5005L13.0004 11.4381" stroke="#F64545" stroke-width="2" stroke-linecap="round" stroke-linejoin="round"/>
</g>
</g>
</g>
<defs>
<clipPath id="clip0_95_204">
<rect width="26" height="26" fill="white" transform="translate(0 0.5)"/>
</clipPath>
</defs>
</svg>
