<svg width="353" height="308" viewBox="0 0 353 308" fill="none" xmlns="http://www.w3.org/2000/svg">
<g clip-path="url(#clip0_95_15)">
<path d="M37.3333 49.5H35V41.3333H32.6667V49.5H30.3333V41.3333H28V49.5C28 51.9733 29.9367 53.98 32.375 54.1317V64.6667H35.2917V54.1317C37.73 53.98 39.6667 51.9733 39.6667 49.5V41.3333H37.3333V49.5ZM43.1667 46V55.3333H46.0833V64.6667H49V41.3333C45.78 41.3333 43.1667 43.9467 43.1667 46Z" fill="#F64345"/>
</g>
<path d="M32.1133 74.043C32.1016 75.5605 33.2031 76.9141 34.75 77.4531L34.2812 78.1797C33.0742 77.7344 32.1191 76.8379 31.6504 75.6836C31.1934 76.9199 30.2324 77.8926 29.0078 78.3672L28.5273 77.6406C30.0859 77.0605 31.1758 75.6191 31.1758 74.043V73.0469H32.1133V74.043ZM30.0156 80.0898V79.3281H37.0234V82.9492H36.1094V80.0898H30.0156ZM36.1094 78.8125V72.5312H37.0234V78.8125H36.1094ZM47.3828 72.5312V82.9727H46.457V72.5312H47.3828ZM39.4023 80.4531V73.4219H40.3164V76.1758H43.4219V73.4219H44.3242V80.4531H39.4023ZM40.3164 79.6797H43.4219V76.9141H40.3164V79.6797Z" fill="black"/>
<rect x="101" y="32.5" width="59" height="59" rx="7.5" stroke="#F64545"/>
<g clip-path="url(#clip1_95_15)">
<path d="M139.833 42.5H121.167V54.1667C121.167 56.745 123.255 58.8333 125.833 58.8333H132.833C135.412 58.8333 137.5 56.745 137.5 54.1667V50.6667H139.833C141.128 50.6667 142.167 49.6167 142.167 48.3333V44.8333C142.167 43.5383 141.128 42.5 139.833 42.5ZM139.833 48.3333H137.5V44.8333H139.833V48.3333ZM121.167 61.1667H139.833V63.5H121.167V61.1667Z" fill="#F64345"/>
</g>
<path d="M113.324 73.6211C113.318 76.627 112.293 79.3809 108.543 81.2266L108.027 80.5234C109.984 79.5684 111.162 78.3613 111.795 76.9609L108.227 77.3008L108.074 76.4922L112.076 76.2227C112.264 75.6367 112.369 75.0215 112.41 74.3828H108.602V73.6211H113.324ZM115.07 82.9492V72.5312H115.984V76.7734H117.672V77.5469H115.984V82.9492H115.07ZM127.258 72.5312V82.9492H126.367V72.5312H127.258ZM118.176 79.5859C118.498 79.5859 118.873 79.5859 119.277 79.5801V74.6289H118.398V73.8672H123.191V74.6289H122.312V79.457C122.705 79.4219 123.08 79.3867 123.426 79.3398L123.484 80.0195C121.838 80.3242 119.652 80.377 118.293 80.3711L118.176 79.5859ZM120.121 79.5625C120.555 79.5508 121.012 79.5332 121.457 79.5098V74.6289H120.121V79.5625ZM122.887 77.3242V76.4922H124.34V72.7891H125.219V82.3984H124.34V77.3242H122.887ZM132.074 73.1172L129.332 83.2773H128.418L131.148 73.1172H132.074ZM137.418 72.7656C139.686 72.7656 141.092 73.498 141.098 74.7461C141.092 75.9766 139.686 76.6973 137.418 76.6914C135.15 76.6973 133.727 75.9766 133.727 74.7461C133.727 73.498 135.15 72.7656 137.418 72.7656ZM132.672 78.3555V77.5938H142.164V78.3555H132.672ZM133.832 82.8086V79.3867H141.004V82.8086H133.832ZM134.676 74.7461C134.67 75.502 135.73 75.959 137.418 75.9648C139.088 75.959 140.154 75.502 140.16 74.7461C140.154 73.9668 139.088 73.5039 137.418 73.5039C135.73 73.5039 134.67 73.9668 134.676 74.7461ZM134.746 82.0586H140.102V80.125H134.746V82.0586ZM152.582 80.8867V81.6602H143.043V80.8867H145.727V78.9062H144.238V75.6953H150.473V74.0664H144.215V73.3047H151.375V76.457H145.152V78.1445H151.621V78.9062H149.992V80.8867H152.582ZM146.629 80.8867H149.09V78.9062H146.629V80.8867Z" fill="black"/>
<g clip-path="url(#clip2_95_15)">
<path d="M230.573 46.0117C230.34 45.3233 229.687 44.8333 228.917 44.8333H226V42.5H219V44.8333H216.083C215.313 44.8333 214.672 45.3233 214.427 46.0117L212 53V62.3333C212 62.975 212.525 63.5 213.167 63.5H214.333C214.975 63.5 215.5 62.975 215.5 62.3333V61.1667H229.5V62.3333C229.5 62.975 230.025 63.5 230.667 63.5H231.833C232.475 63.5 233 62.975 233 62.3333V53L230.573 46.0117ZM216.083 57.6667C215.115 57.6667 214.333 56.885 214.333 55.9167C214.333 54.9483 215.115 54.1667 216.083 54.1667C217.052 54.1667 217.833 54.9483 217.833 55.9167C217.833 56.885 217.052 57.6667 216.083 57.6667ZM228.917 57.6667C227.948 57.6667 227.167 56.885 227.167 55.9167C227.167 54.9483 227.948 54.1667 228.917 54.1667C229.885 54.1667 230.667 54.9483 230.667 55.9167C230.667 56.885 229.885 57.6667 228.917 57.6667ZM214.333 51.8333L216.083 46.5833H228.917L230.667 51.8333H214.333Z" fill="#F64345"/>
</g>
<path d="M220.789 73.5859V74.7461C220.783 76.082 220.783 77.4238 220.414 79.3633L219.512 79.2578C219.881 77.418 219.881 76.0469 219.887 74.7461V74.3477H213.418V73.5859H220.789ZM212.422 81.4727V80.7109H214.777V77.2773H215.691V80.7109H217.379V77.2773H218.281V80.7109H221.914V81.4727H212.422ZM232.285 78.0625V78.8125H222.781V78.0625H227.07V77.0312H224.047V72.8359H231.102V73.5859H224.973V74.5586H230.82V75.2617H224.973V76.293H231.16V77.0312H227.984V78.0625H232.285ZM223.941 81.2617C223.936 80.1777 225.23 79.5859 227.539 79.5977C229.824 79.5859 231.113 80.1777 231.125 81.2617C231.113 82.3574 229.824 82.9258 227.539 82.9258C225.23 82.9258 223.936 82.3574 223.941 81.2617ZM224.867 81.2617C224.855 81.8945 225.816 82.2227 227.539 82.2109C229.244 82.2227 230.193 81.8945 230.199 81.2617C230.193 80.6406 229.244 80.2949 227.539 80.2891C225.816 80.2949 224.855 80.6406 224.867 81.2617Z" fill="black"/>
<path d="M310.9 59C309.91 59 309.109 59.9 309.109 61C309.109 62.1 309.91 63 310.9 63C311.89 63 312.7 62.1 312.7 61C312.7 59.9 311.89 59 310.9 59ZM305.5 43V45H307.3L310.54 52.59L309.325 55.04C309.181 55.32 309.1 55.65 309.1 56C309.1 57.1 309.91 58 310.9 58H321.7V56H311.278C311.152 56 311.053 55.89 311.053 55.75L311.08 55.63L311.89 54H318.595C319.27 54 319.864 53.59 320.17 52.97L323.392 46.48C323.464 46.34 323.5 46.17 323.5 46C323.5 45.45 323.095 45 322.6 45H309.289L308.443 43H305.5ZM319.9 59C318.91 59 318.109 59.9 318.109 61C318.109 62.1 318.91 63 319.9 63C320.89 63 321.7 62.1 321.7 61C321.7 59.9 320.89 59 319.9 59Z" fill="#F64345"/>
<path d="M307.527 74.6055C307.533 75.7598 308.336 76.9258 309.672 77.4297L309.191 78.1328C308.189 77.7461 307.469 77.002 307.094 76.1055C306.713 77.0957 305.963 77.9805 304.938 78.4258L304.434 77.7109C305.805 77.1133 306.643 75.7656 306.648 74.6055V73.1875H307.527V74.6055ZM306.332 81.0742C306.32 79.8965 307.656 79.2051 309.824 79.2109C311.98 79.2051 313.322 79.8965 313.328 81.0742C313.322 82.2402 311.98 82.9258 309.824 82.9258C307.656 82.9258 306.32 82.2402 306.332 81.0742ZM307.246 81.0742C307.234 81.7832 308.225 82.2168 309.824 82.2109C311.406 82.2168 312.402 81.7832 312.414 81.0742C312.402 80.3535 311.406 79.9199 309.824 79.9141C308.225 79.9199 307.234 80.3535 307.246 81.0742ZM310.141 78.6484V72.7422H311.008V75.3438H312.391V72.543H313.27V78.9766H312.391V76.1055H311.008V78.6484H310.141ZM322.926 72.5312V75.2031H324.484V75.9883H322.926V78.6836H322V72.5312H322.926ZM314.746 77.7461C315.578 77.7461 316.551 77.7461 317.57 77.7168V77.0723C316.346 76.9727 315.572 76.4863 315.578 75.6953C315.572 74.8398 316.533 74.3418 318.016 74.3477C319.498 74.3418 320.453 74.8398 320.465 75.6953C320.453 76.4805 319.697 76.9668 318.484 77.0723V77.6816C319.457 77.6348 320.441 77.5586 321.355 77.4297L321.438 78.0508C319.188 78.4199 316.686 78.4375 314.852 78.4375L314.746 77.7461ZM315.004 73.9961V73.3281H317.57V72.4375H318.484V73.3281H321.039V73.9961H315.004ZM316.141 79.8086V79.1523H322.926V81.25H317.078V82.1758H323.324V82.832H316.164V80.6289H322.012V79.8086H316.141ZM316.457 75.6953C316.451 76.1641 317.055 76.4629 318.016 76.4688C318.977 76.4629 319.586 76.1641 319.586 75.6953C319.586 75.2383 318.977 74.9629 318.016 74.957C317.055 74.9629 316.451 75.2383 316.457 75.6953Z" fill="black"/>
<g clip-path="url(#clip3_95_15)">
<path d="M44.3333 132.178L32.6667 132.167C31.3833 132.167 30.345 133.217 30.345 134.5V155.5C30.345 156.783 31.3833 157.833 32.6667 157.833H44.3333C45.6167 157.833 46.6667 156.783 46.6667 155.5V134.5C46.6667 133.217 45.6167 132.178 44.3333 132.178ZM44.3333 153.167H32.6667V136.833H44.3333V153.167Z" fill="#F64345"/>
</g>
<path d="M37.9141 170.062V170.812H28.4102V170.062H32.6992V169.031H29.6758V164.836H36.7305V165.586H30.6016V166.559H36.4492V167.262H30.6016V168.293H36.7891V169.031H33.6133V170.062H37.9141ZM29.5703 173.262C29.5645 172.178 30.8594 171.586 33.168 171.598C35.4531 171.586 36.7422 172.178 36.7539 173.262C36.7422 174.357 35.4531 174.926 33.168 174.926C30.8594 174.926 29.5645 174.357 29.5703 173.262ZM30.4961 173.262C30.4844 173.895 31.4453 174.223 33.168 174.211C34.873 174.223 35.8223 173.895 35.8281 173.262C35.8223 172.641 34.873 172.295 33.168 172.289C31.4453 172.295 30.4844 172.641 30.4961 173.262ZM47.3945 164.543V172.184H46.4805V164.543H47.3945ZM38.8984 169.957C40.4746 169.342 41.5469 167.818 41.5469 166.172V165.129H42.4844V166.172C42.4727 167.76 43.5566 169.184 45.1094 169.746L44.6289 170.484C43.4219 170.021 42.4844 169.084 42.0215 167.883C41.5703 169.16 40.6211 170.186 39.4023 170.672L38.8984 169.957ZM40.668 174.727V171.48H41.582V173.953H47.7227V174.727H40.668Z" fill="black"/>
<g clip-path="url(#clip4_95_15)">
<path d="M130.5 155.908L128.808 154.368C122.8 148.92 118.833 145.327 118.833 140.917C118.833 137.323 121.657 134.5 125.25 134.5C127.28 134.5 129.228 135.445 130.5 136.938C131.772 135.445 133.72 134.5 135.75 134.5C139.343 134.5 142.167 137.323 142.167 140.917C142.167 145.327 138.2 148.92 132.192 154.38L130.5 155.908Z" fill="#F64345"/>
</g>
<path d="M123.984 166.5C123.984 167.953 125.039 169.324 126.562 169.875L126.047 170.59C124.904 170.139 123.99 169.236 123.545 168.1C123.105 169.359 122.156 170.355 120.926 170.848L120.434 170.098C121.998 169.523 123.076 168.064 123.082 166.465V165.176H123.984V166.5ZM122.32 174.727V171.457H123.246V173.953H129.293V174.727H122.32ZM125.812 167.766V166.992H128.133V164.543H129.059V172.348H128.133V167.766H125.812ZM140.285 168.938V169.688H135.984V170.719H139.066V173.051H132.879V174.105H139.383V174.832H131.965V172.359H138.164V171.434H131.941V170.719H135.07V169.688H130.793V168.938H140.285ZM132.023 168.059V164.883H139.055V168.059H132.023ZM132.938 167.32H138.141V165.621H132.938V167.32Z" fill="black"/>
<g clip-path="url(#clip5_95_15)">
<path d="M233 138H212C210.717 138 209.667 139.05 209.667 140.333V149.667C209.667 150.95 210.717 152 212 152H233C234.283 152 235.333 150.95 235.333 149.667V140.333C235.333 139.05 234.283 138 233 138ZM221.333 146.167H217.833V149.667H215.5V146.167H212V143.833H215.5V140.333H217.833V143.833H221.333V146.167ZM226.583 148.5C225.615 148.5 224.833 147.718 224.833 146.75C224.833 145.782 225.615 145 226.583 145C227.552 145 228.333 145.782 228.333 146.75C228.333 147.718 227.552 148.5 226.583 148.5ZM231.25 145C230.282 145 229.5 144.218 229.5 143.25C229.5 142.282 230.282 141.5 231.25 141.5C232.218 141.5 233 142.282 233 143.25C233 144.218 232.218 145 231.25 145Z" fill="#F64345"/>
</g>
<path d="M217.168 165.211C219.383 165.223 220.977 166.301 220.977 167.941C220.977 169.494 219.594 170.52 217.613 170.654V172.84H221.961V173.613H212.422V172.84H216.711V170.654C214.742 170.514 213.359 169.488 213.359 167.941C213.359 166.301 214.959 165.223 217.168 165.211ZM214.25 167.941C214.244 169.143 215.48 169.922 217.168 169.934C218.855 169.922 220.086 169.143 220.086 167.941C220.086 166.764 218.855 165.967 217.168 165.973C215.48 165.967 214.244 166.764 214.25 167.941ZM227.961 165.164V168.035H224.164V169.547C226.016 169.541 227.357 169.477 228.98 169.207L229.074 169.969C227.404 170.244 226.01 170.314 224.07 170.309H223.262V167.309H227.059V165.914H223.238V165.164H227.961ZM224.117 172.172V171.422H230.938V174.949H230.023V172.172H224.117ZM230.023 170.871V164.543H230.938V167.215H232.52V167.988H230.938V170.871H230.023Z" fill="black"/>
<g clip-path="url(#clip6_95_15)">
<path d="M323.32 144.253L315.667 140.847V139.167C315.667 138.525 315.142 138 314.5 138C313.858 138 313.333 137.475 313.333 136.833C313.333 136.192 313.858 135.667 314.5 135.667C315.142 135.667 315.667 136.192 315.667 136.833H318C318 134.687 316.063 132.983 313.847 133.392C312.47 133.648 311.338 134.757 311.07 136.133C310.72 137.953 311.77 139.563 313.333 140.123V140.858L305.68 144.265C304.653 144.708 304 145.723 304 146.832V146.843C304 148.407 305.26 149.667 306.823 149.667H308.667V156.667H320.333V149.667H322.177C323.74 149.667 325 148.407 325 146.843V146.832C325 145.723 324.347 144.708 323.32 144.253ZM322.177 147.333H320.333V146.167H308.667V147.333H306.823C306.555 147.333 306.333 147.112 306.333 146.832C306.333 146.633 306.45 146.458 306.625 146.388L314.5 142.888L322.375 146.388C322.55 146.47 322.667 146.645 322.667 146.843C322.667 147.112 322.445 147.333 322.177 147.333Z" fill="#F64345"/>
</g>
<path d="M313.352 164.531V174.949H312.461V169.512H311.043V174.41H310.164V164.766H311.043V168.738H312.461V164.531H313.352ZM304.305 171.586C304.639 171.586 305.025 171.586 305.441 171.58V166.617H304.527V165.855H309.391V166.617H308.488V171.457C308.881 171.422 309.256 171.387 309.602 171.34L309.648 172.02C307.996 172.324 305.793 172.377 304.422 172.371L304.305 171.586ZM306.297 171.562C306.736 171.551 307.188 171.533 307.633 171.51V166.617H306.297V171.562ZM318.355 166.465C318.355 167.994 319.404 169.436 320.91 170.027L320.395 170.742C319.252 170.268 318.355 169.318 317.916 168.135C317.471 169.412 316.533 170.426 315.32 170.93L314.816 170.191C316.369 169.594 317.447 168.1 317.453 166.465V165.129H318.355V166.465ZM316.691 174.727V171.516H317.617V173.953H323.664V174.727H316.691ZM320.359 168.984V168.234H322.504V166.852H320.359V166.09H322.504V164.543H323.43V172.324H322.504V168.984H320.359Z" fill="black"/>
<g clip-path="url(#clip7_95_15)">
<path d="M47.8333 237C47.8333 235.717 48.8833 234.667 50.1667 234.667V230C50.1667 228.717 49.1167 227.667 47.8333 227.667H29.1667C27.8833 227.667 26.845 228.717 26.845 230V234.667C28.1283 234.667 29.1667 235.717 29.1667 237C29.1667 238.283 28.1283 239.333 26.8333 239.333V244C26.8333 245.283 27.8833 246.333 29.1667 246.333H47.8333C49.1167 246.333 50.1667 245.283 50.1667 244V239.333C48.8833 239.333 47.8333 238.283 47.8333 237ZM42.6767 242.6L38.5 239.917L34.3233 242.6L35.5833 237.793L31.745 234.655L36.6917 234.363L38.5 229.767L40.2967 234.375L45.2433 234.667L41.405 237.805L42.6767 242.6Z" fill="#F64345"/>
</g>
<path d="M37.9492 261.863V262.625H33.707V264.758H32.793V262.625H28.4102V261.863H37.9492ZM29.6289 266.727V263.727H30.5547V265.953H36.8828V266.727H29.6289ZM29.6523 260.668V257.047H36.707V260.668H29.6523ZM30.5547 259.93H35.793V257.773H30.5547V259.93ZM46.8789 256.531V260.973H48.543V261.746H46.8789V266.949H45.9531V256.531H46.8789ZM38.6641 264.172C39.5137 264.172 40.5039 264.166 41.5352 264.137V262.988C40.3223 262.848 39.5312 262.133 39.543 261.102C39.5312 259.924 40.5273 259.162 42.0039 259.168C43.457 259.162 44.4707 259.924 44.4766 261.102C44.4707 262.139 43.668 262.848 42.4609 262.988V264.102C43.4277 264.055 44.4121 263.973 45.3203 263.844L45.3789 264.547C43.1055 264.934 40.6445 264.957 38.8164 264.957L38.6641 264.172ZM38.8516 258.559V257.809H41.5352V256.555H42.4609V257.809H45.1328V258.559H38.8516ZM40.3984 261.102C40.4043 261.822 41.0371 262.297 42.0039 262.285C42.9531 262.297 43.5918 261.822 43.5977 261.102C43.5918 260.375 42.9531 259.883 42.0039 259.883C41.0371 259.883 40.4043 260.375 40.3984 261.102Z" fill="black"/>
<g clip-path="url(#clip8_95_15)">
<path d="M138.667 226.5H122.333C121.05 226.5 120.012 227.55 120.012 228.833L120 245.167C120 246.45 121.05 247.5 122.333 247.5H138.667C139.95 247.5 141 246.45 141 245.167V228.833C141 227.55 139.95 226.5 138.667 226.5ZM137.5 239.333H132.833V244H128.167V239.333H123.5V234.667H128.167V230H132.833V234.667H137.5V239.333Z" fill="#F64345"/>
</g>
<path d="M123.832 257.293C125.467 257.299 126.627 258.295 126.633 259.742C126.627 261.195 125.467 262.186 123.832 262.191C122.186 262.186 121.014 261.195 121.02 259.742C121.014 258.295 122.186 257.299 123.832 257.293ZM120.48 263.891C122.402 263.896 125.057 263.879 127.359 263.539L127.43 264.219C125.045 264.664 122.484 264.676 120.609 264.676L120.48 263.891ZM121.922 259.742C121.916 260.715 122.719 261.383 123.832 261.383C124.934 261.383 125.736 260.715 125.73 259.742C125.736 258.775 124.934 258.102 123.832 258.102C122.719 258.102 121.916 258.775 121.922 259.742ZM128.051 266.973V256.531H128.965V266.973H128.051ZM140.332 264.887V265.66H130.793V264.887H133.477V262.906H131.988V259.695H138.223V258.066H131.965V257.305H139.125V260.457H132.902V262.145H139.371V262.906H137.742V264.887H140.332ZM134.379 264.887H136.84V262.906H134.379V264.887Z" fill="black"/>
<g clip-path="url(#clip9_95_15)">
<path d="M220.167 246.333V239.333H224.833V246.333H230.667V237H234.167L222.5 226.5L210.833 237H214.333V246.333H220.167Z" fill="#F64345"/>
</g>
<path d="M215.289 257.586V258.746C215.283 260.082 215.283 261.424 214.914 263.363L214.012 263.258C214.381 261.418 214.381 260.047 214.387 258.746V258.348H207.918V257.586H215.289ZM206.922 265.473V264.711H209.277V261.277H210.191V264.711H211.879V261.277H212.781V264.711H216.414V265.473H206.922ZM226.785 262.062V262.812H217.281V262.062H221.57V261.031H218.547V256.836H225.602V257.586H219.473V258.559H225.32V259.262H219.473V260.293H225.66V261.031H222.484V262.062H226.785ZM218.441 265.262C218.436 264.178 219.73 263.586 222.039 263.598C224.324 263.586 225.613 264.178 225.625 265.262C225.613 266.357 224.324 266.926 222.039 266.926C219.73 266.926 218.436 266.357 218.441 265.262ZM219.367 265.262C219.355 265.895 220.316 266.223 222.039 266.211C223.744 266.223 224.693 265.895 224.699 265.262C224.693 264.641 223.744 264.295 222.039 264.289C220.316 264.295 219.355 264.641 219.367 265.262ZM236.254 256.531V266.973H235.328V256.531H236.254ZM228.273 264.453V257.422H229.188V260.176H232.293V257.422H233.195V264.453H228.273ZM229.188 263.68H232.293V260.914H229.188V263.68Z" fill="black"/>
<circle cx="308.5" cy="237" r="2" fill="#F64345"/>
<circle cx="314.5" cy="237" r="2" fill="#F64345"/>
<circle cx="320.5" cy="237" r="2" fill="#F64345"/>
<path d="M313.035 256.531V266.949H312.109V256.531H313.035ZM304.551 264.242C307.369 262.906 308.811 260.908 309.016 258.418H305.031V257.668H309.953C309.941 260.662 308.547 263.316 305.055 264.992L304.551 264.242ZM320.137 257.48V258.254H316.176V260.41H319.902V261.16H316.176V263.68C318.057 263.68 319.375 263.609 320.934 263.34L321.039 264.102C319.41 264.377 318.045 264.436 316.07 264.441H315.25V257.48H320.137ZM321.941 266.949V256.531H322.855V260.727H324.602V261.512H322.855V266.949H321.941Z" fill="black"/>
<defs>
<clipPath id="clip0_95_15">
<rect width="28" height="28" fill="white" transform="translate(24.5 39)"/>
</clipPath>
<clipPath id="clip1_95_15">
<rect width="28" height="28" fill="white" transform="translate(116.5 39)"/>
</clipPath>
<clipPath id="clip2_95_15">
<rect width="28" height="28" fill="white" transform="translate(208.5 39)"/>
</clipPath>
<clipPath id="clip3_95_15">
<rect width="28" height="28" fill="white" transform="translate(24.5 131)"/>
</clipPath>
<clipPath id="clip4_95_15">
<rect width="28" height="28" fill="white" transform="translate(116.5 131)"/>
</clipPath>
<clipPath id="clip5_95_15">
<rect width="28" height="28" fill="white" transform="translate(208.5 131)"/>
</clipPath>
<clipPath id="clip6_95_15">
<rect width="28" height="28" fill="white" transform="translate(300.5 131)"/>
</clipPath>
<clipPath id="clip7_95_15">
<rect width="28" height="28" fill="white" transform="translate(24.5 223)"/>
</clipPath>
<clipPath id="clip8_95_15">
<rect width="28" height="28" fill="white" transform="translate(116.5 223)"/>
</clipPath>
<clipPath id="clip9_95_15">
<rect width="28" height="28" fill="white" transform="translate(208.5 223)"/>
</clipPath>
</defs>
</svg>
