<svg width="27" height="14" viewBox="0 0 27 14" fill="none" xmlns="http://www.w3.org/2000/svg">
<path d="M24 0H3.00001C1.71667 0 0.666672 1.05 0.666672 2.33333V11.6667C0.666672 12.95 1.71667 14 3.00001 14H24C25.2833 14 26.3333 12.95 26.3333 11.6667V2.33333C26.3333 1.05 25.2833 0 24 0ZM12.3333 8.16667H8.83334V11.6667H6.5V8.16667H3.00001V5.83333H6.5V2.33333H8.83334V5.83333H12.3333V8.16667ZM17.5833 10.5C16.615 10.5 15.8333 9.71833 15.8333 8.75C15.8333 7.78167 16.615 7 17.5833 7C18.5517 7 19.3333 7.78167 19.3333 8.75C19.3333 9.71833 18.5517 10.5 17.5833 10.5ZM22.25 7C21.2817 7 20.5 6.21833 20.5 5.25C20.5 4.28167 21.2817 3.5 22.25 3.5C23.2183 3.5 24 4.28167 24 5.25C24 6.21833 23.2183 7 22.25 7Z" fill="#F64345"/>
</svg>
