<svg width="21" height="22" viewBox="0 0 21 22" fill="none" xmlns="http://www.w3.org/2000/svg">
<path d="M18.5733 4.01167C18.34 3.32333 17.6867 2.83333 16.9167 2.83333H14V0.5H7V2.83333H4.08333C3.31333 2.83333 2.67167 3.32333 2.42667 4.01167L0 11V20.3333C0 20.975 0.525 21.5 1.16667 21.5H2.33333C2.975 21.5 3.5 20.975 3.5 20.3333V19.1667H17.5V20.3333C17.5 20.975 18.025 21.5 18.6667 21.5H19.8333C20.475 21.5 21 20.975 21 20.3333V11L18.5733 4.01167ZM4.08333 15.6667C3.115 15.6667 2.33333 14.885 2.33333 13.9167C2.33333 12.9483 3.115 12.1667 4.08333 12.1667C5.05167 12.1667 5.83333 12.9483 5.83333 13.9167C5.83333 14.885 5.05167 15.6667 4.08333 15.6667ZM16.9167 15.6667C15.9483 15.6667 15.1667 14.885 15.1667 13.9167C15.1667 12.9483 15.9483 12.1667 16.9167 12.1667C17.885 12.1667 18.6667 12.9483 18.6667 13.9167C18.6667 14.885 17.885 15.6667 16.9167 15.6667ZM2.33333 9.83333L4.08333 4.58333H16.9167L18.6667 9.83333H2.33333Z" fill="#F64345"/>
</svg>
