<svg width="25" height="20" viewBox="0 0 25 20" fill="none" xmlns="http://www.w3.org/2000/svg">
<path d="M21.8333 9.99999C21.8333 8.71666 22.8833 7.66666 24.1667 7.66666V2.99999C24.1667 1.71666 23.1167 0.666656 21.8333 0.666656H3.16668C1.88334 0.666656 0.84501 1.71666 0.84501 2.99999V7.66666C2.12834 7.66666 3.16668 8.71666 3.16668 9.99999C3.16668 11.2833 2.12834 12.3333 0.833344 12.3333V17C0.833344 18.2833 1.88334 19.3333 3.16668 19.3333H21.8333C23.1167 19.3333 24.1667 18.2833 24.1667 17V12.3333C22.8833 12.3333 21.8333 11.2833 21.8333 9.99999ZM16.6767 15.6L12.5 12.9167L8.32334 15.6L9.58334 10.7933L5.74501 7.65499L10.6917 7.36332L12.5 2.76666L14.2967 7.37499L19.2433 7.66666L15.405 10.805L16.6767 15.6Z" fill="#F64345"/>
</svg>
