<svg width="19" height="20" viewBox="0 0 19 20" fill="none" xmlns="http://www.w3.org/2000/svg">
<path d="M5.9 16C4.91 16 4.109 16.9 4.109 18C4.109 19.1 4.91 20 5.9 20C6.89 20 7.7 19.1 7.7 18C7.7 16.9 6.89 16 5.9 16ZM0.5 0V2H2.3L5.54 9.59L4.325 12.04C4.181 12.32 4.1 12.65 4.1 13C4.1 14.1 4.91 15 5.9 15H16.7V13H6.278C6.152 13 6.053 12.89 6.053 12.75L6.08 12.63L6.89 11H13.595C14.27 11 14.864 10.59 15.17 9.97L18.392 3.48C18.464 3.34 18.5 3.17 18.5 3C18.5 2.45 18.095 2 17.6 2H4.289L3.443 0H0.5ZM14.9 16C13.91 16 13.109 16.9 13.109 18C13.109 19.1 13.91 20 14.9 20C15.89 20 16.7 19.1 16.7 18C16.7 16.9 15.89 16 14.9 16Z" fill="#F64345"/>
</svg>
