<svg id="Layer_1" data-name="Layer 1" xmlns="http://www.w3.org/2000/svg" viewBox="0 0 304.11 540.2"><defs><style>.cls-1{fill:#df210e;}.cls-2{fill:#f4cf56;}.cls-3{fill:#b2b2b2;}.cls-4{fill:gray;}.cls-5{fill:#6d6f72;}.cls-6{fill:#e82551;}.cls-7{fill:#88c45a;}.cls-8{fill:#29b6f6;}.cls-9{fill:#c16e6d;}.cls-10{fill:#ab47bc;}.cls-11{fill:#d9d8d8;}.cls-12{fill:#ffe000;}.cls-13{fill:#45dbad;}.cls-14{fill:#ff990e;}.cls-15{fill:#c47c60;}.cls-16,.cls-17{fill:#cfd1ff;}.cls-16{opacity:0.54;}.cls-17{opacity:0.28;}.cls-18{opacity:0.5;}.cls-19{fill:#fff;}.cls-20{fill:#464749;}</style></defs><rect class="cls-1" x="25.91" width="253.42" height="23.65" rx="9.01"/><path class="cls-2" d="M43.25,304.11h217.6a13.63,13.63,0,0,1,13.63,13.63V426.34a0,0,0,0,1,0,0H29.63a0,0,0,0,1,0,0V317.74A13.63,13.63,0,0,1,43.25,304.11Z"/><rect class="cls-1" x="40.55" y="275.95" width="223.01" height="28.16"/><path class="cls-1" d="M29.63,426.34H274.48a0,0,0,0,1,0,0v15a13.11,13.11,0,0,1-13.11,13.11H42.74a13.11,13.11,0,0,1-13.11-13.11v-15A0,0,0,0,1,29.63,426.34Z"/><rect class="cls-3" x="116.01" y="315.37" width="72.09" height="94.61" rx="14.24"/><path class="cls-4" d="M701,844.19a18.87,18.87,0,0,1,16.36,9.45,16.61,16.61,0,0,0,.53-4.2v-24.2H684.05v24.2a16.61,16.61,0,0,0,.53,4.2A18.87,18.87,0,0,1,701,844.19Z" transform="translate(-548.09 -509.87)"/><path class="cls-5" d="M701,866.34h0a16.89,16.89,0,0,0,16.36-12.7,18.9,18.9,0,0,0-32.73,0A16.89,16.89,0,0,0,701,866.34Z" transform="translate(-548.09 -509.87)"/><circle class="cls-6" cx="624.85" cy="752.03" r="33.79" transform="translate(-900.86 257.54) rotate(-51.18)"/><circle class="cls-6" cx="684.58" cy="631.9" r="33.79" transform="translate(-578.93 718.79) rotate(-82.54)"/><circle class="cls-7" cx="677.42" cy="752.03" r="33.79" transform="translate(-846.4 511.2) rotate(-63.4)"/><circle class="cls-8" cx="751.08" cy="752.03" r="33.79" transform="translate(-859.86 241.49) rotate(-45)"/><circle class="cls-9" cx="711.21" cy="712.57" r="33.79" transform="translate(-766.64 -183.46) rotate(-22.5)"/><circle class="cls-10" cx="654.64" cy="697.05" r="33.79" transform="translate(-811.33 455.36) rotate(-63.08)"/><circle class="cls-11" cx="774.79" cy="701.06" r="33.79" transform="translate(-757.39 -160) rotate(-22.5)"/><circle class="cls-12" cx="188.1" cy="153.39" r="33.79"/><circle class="cls-13" cx="622.43" cy="652.25" r="33.79" transform="translate(-826.99 121.29) rotate(-45)"/><circle class="cls-14" cx="74.34" cy="74.79" r="33.79"/><circle class="cls-15" cx="230.7" cy="123.61" r="33.79"/><rect class="cls-16" x="40.85" y="23.65" width="223.01" height="252.3"/><polygon class="cls-17" points="263.56 265.81 304.11 244.41 304.11 23.65 263.56 23.65 263.56 265.81"/><polygon class="cls-17" points="40.55 265.81 0 244.41 0 23.65 40.55 23.65 40.55 265.81"/><g class="cls-18"><polygon class="cls-19" points="263.56 190.35 162.96 23.65 142.68 23.65 263.56 223.95 263.56 190.35"/><polygon class="cls-19" points="75.79 23.65 228.05 275.95 248.32 275.95 96.06 23.65 75.79 23.65"/><polygon class="cls-19" points="40.55 23.65 40.55 47.33 178.52 275.95 212.96 275.95 60.7 23.65 40.55 23.65"/><polygon class="cls-19" points="40.55 82.44 157.33 275.95 164.92 275.95 40.55 69.86 40.55 82.44"/></g><path class="cls-20" d="M569,1050.06h0a8.12,8.12,0,0,0,8.1-8.09V824.87a8.12,8.12,0,0,0-8.1-8.09h0a8.12,8.12,0,0,0-8.1,8.09V1042A8.12,8.12,0,0,0,569,1050.06Z" transform="translate(-548.09 -509.87)"/><rect class="cls-20" x="275.11" y="306.91" width="16.19" height="233.29" rx="8.1"/></svg>